<svg version="1.1" id="Layer_1" xmlns="http://www.w3.org/2000/svg" xmlns:xlink="http://www.w3.org/1999/xlink" viewBox="0 0 511.992 511.992" xml:space="preserve" fill="#000000"><g id="SVGRepo_bgCarrier" stroke-width="0"></g><g id="SVGRepo_tracerCarrier" stroke-linecap="round" stroke-linejoin="round"></g><g id="SVGRepo_iconCarrier"> <path style="fill:#434A54;" d="M330.666,159.997c0,5.906-4.781,10.672-10.672,10.672H191.996c-5.89,0-10.671-4.766-10.671-10.672 V10.672C181.325,4.781,186.106,0,191.996,0h127.998c5.891,0,10.672,4.781,10.672,10.672L330.666,159.997L330.666,159.997z"></path> <path style="fill:#656D78;" d="M213.325,21.344c-5.891,0-10.656,4.765-10.656,10.656v88.733h21.327V31.999 C223.996,26.109,219.215,21.344,213.325,21.344z"></path> <path style="fill:#5D9CEC;" d="M415.994,511.992H95.998V170.669c0,0,32.343-63.999,159.997-63.999 c127.655,0,159.999,63.999,159.999,63.999V511.992z"></path> <path style="fill:#4A89DC;" d="M245.184,106.842v405.15h21.328V106.826c-3.438-0.094-6.938-0.156-10.516-0.156 C252.308,106.67,248.714,106.732,245.184,106.842z"></path> <rect x="170.856" y="223.996" style="fill:#F5F7FA;" width="170" height="192"></rect> </g></svg>